<?xml version="1.0" encoding="utf-8"?>
<svg viewBox="4.94 29.803 90 53.854" width="90" height="53.854" xmlns="http://www.w3.org/2000/svg">
  <path d="M 31.469 57.171 L 30.828 53.697 L 28.843 49.552 L 28.09 48.092 L 27.391 46.515 L 26.75 45.612 L 26.192 44.423 L 25.294 41.819 L 24 38.922 L 22.935 36.734 L 21.82 34.853 L 20.306 33.277 L 19.041 31.992 L 18.092 31.164 L 17.389 30.119 L 17.897 29.828 L 19.699 29.803 L 22.278 29.974 L 23.252 30.311 L 24.004 31.04 L 24.616 30.944 L 24.945 32.084 L 24.833 33.766 L 25.074 34.985 L 25.827 37.003 L 26.289 37.952 L 27.508 40.215 L 28.698 42.042 L 30.353 43.885 C 31.369 44.822 32.055 46.24 32.18 46.565 L 33.761 48.583 L 35.172 50.676 L 36.22 52.624 L 36.973 54.496 L 37.41 55.761 C 37.468 55.054 37.443 54.412 37.339 53.839 L 37.193 52.187 L 36.485 48.217 L 36.119 46.781 L 36 45.975 L 35.975 45.272 L 36.05 44.686 L 36.221 44.199 L 36.658 43.542 L 37.291 42.697 L 37.865 42.231 L 45.612 35.71 L 46.898 34.812 L 48.092 34.129 L 49.091 33.643 L 50.165 33.481 L 51.379 32.99 L 52.278 32.699 L 53.984 32.649 L 54.762 32.844 L 55.431 33.111 L 54.155 34.663 L 53.518 35.541 L 52.911 36.272 L 52.353 36.855 L 51.957 37.221 L 51.449 37.242 L 50.554 37.197 L 50.899 37.571 L 50.999 37.996 L 50.375 37.925 L 48.865 37.708 L 47.82 37.754 L 47.213 38 L 46.36 38.437 L 45.195 39.19 L 43.88 40.184 L 42.761 41.258 L 41.983 42.035 L 40.863 43.371 L 40.548 44.028 L 40.452 44.735 L 40.548 45.539 L 40.789 46.412 L 41.18 47.411 L 44.101 53.59 L 44.659 55.366 L 44.709 56.535 L 44.976 57.193 L 45.392 57.484 L 45.999 57.651 L 46.636 57.696 L 47.264 57.696 L 48.092 57.679 L 49.961 57.655 L 51.158 57.7 L 53.152 57.801 L 54.104 57.917 L 55.37 58.208 L 56.806 58.6 L 58.336 58.961 L 59.526 59.257 L 60.375 59.403 L 61.104 59.378 L 61.615 58.355 L 62.539 56.679 L 62.955 56.071 L 63.979 54.394 L 64.533 53.711 L 65.531 52.446 L 66.6 51.181 L 67.186 50.549 L 67.819 49.67 L 68.06 49.184 L 68.05 48.33 L 68.012 48.038 L 67.671 47.314 L 67.45 46.948 L 66.993 46.05 L 66.401 44.876 L 65.64 43.453 L 64.582 41.522 L 63.256 39.151 L 62.494 37.999 L 60.056 34.129 L 58.817 32.864 L 57.748 31.916 L 56.874 30.967 L 56.657 30.718 L 56.458 30.31 L 56.482 30.089 L 56.994 29.923 L 57.623 29.873 L 59.549 29.827 L 61.035 29.973 L 62.124 30.385 L 62.757 31.234 L 63.09 30.952 L 63.198 30.777 L 63.389 31.151 L 63.489 31.525 L 63.273 32.936 L 63.509 34.371 L 63.68 34.958 L 64.359 36.369 L 65.503 38.486 L 66.235 39.627 L 66.842 40.696 L 67.915 42.397 L 69.904 45.143 L 72.172 47.922 L 72.879 48.862 L 73.503 49.648 L 73.944 50.38 L 74.069 50.846 L 73.836 51.341 L 73.541 51.869 L 73.079 52.464 L 72.717 53.093 L 72.533 53.564 L 75.192 52.59 L 76.574 52.203 L 78.034 51.762 L 79.49 51.324 L 80.901 50.346 L 81.121 50.155 L 82.144 47.871 L 83.726 43.711 L 84.063 42.69 L 84.903 40.344 L 85.157 39.378 L 85.573 38.454 L 85.985 37.09 L 86.18 36.604 L 86.738 35.679 L 87.467 34.851 L 88.374 34.024 L 89.497 33.491 L 90.388 33.176 L 92.505 32.593 L 93.35 32.523 L 94.162 32.573 L 94.595 32.764 L 94.94 32.901 L 94.691 33.392 L 94.4 33.954 L 93.929 34.62 L 93.334 35.448 L 92.481 36.484 L 92.069 36.508 L 91.657 36.56 L 91.532 36.63 L 91.557 36.871 L 90.92 37.495 L 90.147 37.478 L 89.564 37.478 L 89.106 37.574 L 88.741 37.89 L 88.079 39.017 L 86.393 43.02 L 85.578 44.901 L 82.916 54.75 L 82.412 56.144 L 81.95 56.51 L 79.782 57.655 L 78.397 58.408 L 77.302 59.352 L 76.574 60.18 L 76.136 61.178 L 75.961 62.418 L 75.724 63.829 L 75.562 65.085 L 75.455 66.217 L 75.383 66.995 L 76.137 66.533 L 76.649 66.508 L 77.082 67.07 L 77.082 67.831 L 76.916 69.184 L 76.088 71.04 L 75.164 72.924 L 74.836 73.552 L 74.12 74.364 L 73.192 75.192 L 71.756 76.09 L 70.42 76.697 L 68.71 77.288 L 66.659 77.684 L 65.286 77.813 L 60.51 78.25 L 56.066 78.545 L 52.513 78.812 L 50.886 79.083 L 49.738 79.42 L 48.644 79.907 L 47.587 80.698 L 45.765 81.801 L 45.05 82.167 L 43.423 82.896 L 42.049 83.357 L 40.493 83.624 L 39.004 83.657 L 37.747 83.557 L 34.901 82.56 L 32.783 81.766 L 26.43 81.487 L 27.424 82.86 L 27.765 83.409 L 26.829 83.388 L 25.631 83.239 L 24.22 82.848 L 23.022 82.265 L 22.464 81.949 L 21.187 81.932 L 20.642 82.165 C 20.642 82.165 20.066 82.343 19.536 82.373 C 18.798 82.415 18.38 82.358 17.818 82.239 C 17.292 82.128 17.128 81.957 16.488 81.585 C 16.107 81.364 15.375 80.872 15.375 80.872 L 12.454 79.075 L 7.977 76.716 L 7.237 76.225 L 6.442 75.672 L 5.859 74.94 L 5.397 74.066 L 5.068 72.918 L 4.968 72.023 L 4.94 71.039 L 5.04 70.311 L 5.202 69.665 L 5.348 69.153 L 6.492 69.107 L 7.699 69.482 L 8.61 69.228 L 9.168 69.203 L 9.705 69.324 L 12.089 70.784 L 13.379 70.588 L 15.226 70.176 L 16.029 68.449 L 17.073 66.652 L 17.393 66.111 L 17.855 65.582 L 18.562 64.8 L 19.336 64.339 L 19.894 64.339 L 20.04 64.585 L 20.136 64.951 L 20.115 66.262 L 20.136 67.76 L 20.186 68.742 L 27.829 65.409 L 28.291 65.047 L 28.724 64.39 L 28.974 63.758 L 29.161 62.71 L 29.311 60.716 L 29.548 60.105 L 30.21 58.96 L 31.533 57.03 L 31.479 57.163" transform="matrix(-1, 0, 0, -1, 99.88, 113.459995)" style="fill: rgb(0, 0, 190);"/>
</svg>